<?xml version="1.0" encoding="UTF-8" standalone="no"?>
<svg width="521px" height="177px" viewBox="0 0 521 177" version="1.1" xmlns="http://www.w3.org/2000/svg" xmlns:xlink="http://www.w3.org/1999/xlink" xmlns:sketch="http://www.bohemiancoding.com/sketch/ns">
    <!-- Generator: Sketch 3.4.2 (15855) - http://www.bohemiancoding.com/sketch -->
    <title>sippe_logo</title>
    <desc>Created with Sketch.</desc>
    <defs></defs>
    <g id="Page-1" stroke="none" stroke-width="1" fill="none" fill-rule="evenodd" sketch:type="MSPage">
        <path d="M0,0 L521,0 L521,177 L0,177 L0,0 Z M33.4936991,130.3959 C43.1180543,135.4168 57.8934729,138.4022 70.228914,138.4022 C95.9842308,138.4022 111.166312,125.2393 111.166312,106.377 C111.166312,97.5565 107.913009,90.6358 101.270848,85.2078 C91.6464932,77.6086 78.0910633,75.9802 74.0244344,74.7589 C72.3977828,74.2161 70.9066855,73.4019 70.9066855,71.3664 C70.9066855,69.8737 71.9911199,68.381 75.9221946,68.381 C80.9377036,68.381 92.8664819,70.6879 105.608586,77.0658 L105.608586,44.9049 C96.6620023,40.2911 82.5643552,37.17 70.6355769,37.17 C45.8291403,37.17 30.6470588,50.6043 30.6470588,70.2808 C30.6470588,79.7798 34.1714706,86.1577 39.3225339,90.7715 C49.353552,99.592 63.0445362,101.0847 67.7889367,102.306 C69.5511425,102.7131 70.7711312,103.5273 70.7711312,105.4271 C70.7711312,107.0555 69.8222511,108.6839 65.7556222,108.6839 C59.9267873,108.6839 46.6424661,105.5628 33.4936991,97.0137 L33.4936991,130.3959 Z M133.261663,136.9095 L173.656844,136.9095 L173.656844,38.6627 L133.261663,38.6627 L133.261663,136.9095 Z M199.141052,136.9095 L239.536233,136.9095 L239.536233,108.9553 L240.891776,108.9553 C265.155995,108.9553 286.302466,98.7778 286.302466,73.5376 C286.302466,45.4477 259.869378,38.6627 236.28293,38.6627 L199.141052,38.6627 L199.141052,136.9095 Z M239.536233,83.9865 L239.536233,67.4311 L240.620667,67.4311 C247.398382,67.4311 250.78724,71.095 250.78724,75.7088 C250.78724,80.3226 247.533937,83.9865 240.620667,83.9865 L239.536233,83.9865 Z M308.533371,136.9095 L348.928552,136.9095 L348.928552,108.9553 L350.284095,108.9553 C374.548314,108.9553 395.694785,98.7778 395.694785,73.5376 C395.694785,45.4477 369.261697,38.6627 345.675249,38.6627 L308.533371,38.6627 L308.533371,136.9095 Z M348.928552,83.9865 L348.928552,67.4311 L350.012986,67.4311 C356.790701,67.4311 360.179559,71.095 360.179559,75.7088 C360.179559,80.3226 356.926256,83.9865 350.012986,83.9865 L348.928552,83.9865 Z M417.92569,136.9095 L490.44724,136.9095 L490.44724,105.6985 L458.320871,105.6985 L458.320871,100.1348 L482.720645,100.1348 L482.720645,76.7944 L458.320871,76.7944 L458.320871,71.5021 L488.54948,71.5021 L488.54948,38.6627 L417.92569,38.6627 L417.92569,136.9095 Z" id="sippe_logo" fill-opacity="0.982704937" fill="#FFFFFF" sketch:type="MSShapeGroup"></path>
    </g>
</svg>